<?xml version="1.0" encoding="UTF-8"?>
<svg id="Layer_2" data-name="Layer 2" xmlns="http://www.w3.org/2000/svg" xmlns:xlink="http://www.w3.org/1999/xlink" viewBox="0 0 85.29 30.58">
  <defs>
    <linearGradient id="linear-gradient" x1="28.27" y1="492.36" x2="57.73" y2="543.39" gradientTransform="translate(0 525.41) scale(1 -1)" gradientUnits="userSpaceOnUse">
      <stop offset=".08" stop-color="#2c3639"/>
      <stop offset=".58" stop-color="#748184"/>
    </linearGradient>
  </defs>
  <g id="Layer_1-2" data-name="Layer 1">
    <g id="Layer_1-2" data-name="Layer 1-2">
      <polygon points="21.74 30.58 63.25 12.7 64.97 10.95 73.97 5.34 73.44 3.04 66.67 4.52 65.46 4.91 0 30.58 21.74 30.58" style="fill: url(#linear-gradient);"/>
      <path d="M64.07,10.12s-.39.41-.51.96-.57.45-.56,1.14.19.68.19.68c0,0,.2.06.34-.2s1.02-1.04,1.56-1.32,2.86-1.48,2.86-1.48l1.11-.59.7-.02.35-.28s.74.04,1.26-.17.94-.65.94-.65c0,0,.91.18,1.24.02s.33-.66.33-.66l.06-.92,1.42-.47.82-.04,1.31-.74s.46-.32.57-.63c.5-.12,2.52-.72,2.95-.92s1.89-.95,1.89-.95c0,0,.35.06.54.1s.69-.37.69-.37l.5-.07.63-.41s.14-.2-.23-.23-2.46.09-2.46.09l-2.15.63s-1.26,0-1.49.27c-.36-.13-.87-.32-.87-.32l.84-.06-.03-.73.3-.02-.1-.69s.37-.23.12-.75-1.27-.24-1.27-.24c0,0-.61.3-.8.48s-.33.88-.33.88c0,0-1.31-.78-1.71-.8s-7.15-.05-7.15-.05c0,0-6.31.66-7.17,1.13,2.28-.19,3.61-.31,3.92.14s-1.29.94-1.29.94c0,0,3.07.03,3.29.85s-1.22,1.27-1.22,1.27l3.97-.52s.17.45.71.37.65-.59.65-.59l2.25-.24s-2.02.73-2.33,1.2-.05,1.04-.05,1.04c0,0-.64.7-1.33.65-.35-.51-.72-.29-.92-.05s-.39.45-.39.45c0,0-.4-.14-.87.55,0,0-.31.42-.29.71-.47.18-.7.85-.7.85l-1.33,1.02-.77-.22v-.02h0Z" style="fill: #515d60;"/>
    </g>
  </g>
</svg>