<?xml version="1.0" encoding="UTF-8"?>
<svg id="Layer_1" data-name="Layer 1" xmlns="http://www.w3.org/2000/svg" xmlns:xlink="http://www.w3.org/1999/xlink" viewBox="0 0 792 368.6">
  <defs>
    <linearGradient id="linear-gradient" x1="195.06" y1="-197.65" x2="224.52" y2="-248.68" gradientTransform="translate(0 304)" gradientUnits="userSpaceOnUse">
      <stop offset=".08" stop-color="#2c3639"/>
      <stop offset=".58" stop-color="#748184"/>
    </linearGradient>
    <linearGradient id="linear-gradient-2" x1="666.92" y1="-232.4" x2="756.34" y2="-248.16" gradientTransform="translate(0 304)" gradientUnits="userSpaceOnUse">
      <stop offset=".21" stop-color="#515d60"/>
      <stop offset=".28" stop-color="#4b575a"/>
      <stop offset=".61" stop-color="#343e41"/>
      <stop offset=".82" stop-color="#2c3639"/>
    </linearGradient>
    <clipPath id="clippath">
      <circle cx="716.16" cy="62.92" r="52.86" style="fill: none;"/>
    </clipPath>
    <linearGradient id="linear-gradient-3" x1="660.71" y1="62.65" x2="770.73" y2="62.65" gradientUnits="userSpaceOnUse">
      <stop offset="0" stop-color="#959a9c"/>
      <stop offset=".03" stop-color="#8d9295"/>
      <stop offset=".22" stop-color="#6a7174"/>
      <stop offset=".41" stop-color="#4f575a"/>
      <stop offset=".61" stop-color="#3b4447"/>
      <stop offset=".8" stop-color="#2f393c"/>
      <stop offset="1" stop-color="#2c3639"/>
    </linearGradient>
    <linearGradient id="linear-gradient-4" x1="683.6" y1="-259.41" x2="712.14" y2="-259.41" gradientTransform="translate(179.75 -490.07) rotate(66.29)" gradientUnits="userSpaceOnUse">
      <stop offset=".18" stop-color="#2c3639"/>
      <stop offset=".39" stop-color="#343e41"/>
      <stop offset=".72" stop-color="#4b575a"/>
      <stop offset=".79" stop-color="#515d60"/>
    </linearGradient>
  </defs>
  <g id="Layer_2" data-name="Layer 2">
    <rect width="792" height="368.5" style="fill: #2c3639;"/>
  </g>
  <g id="Layer_1-2" data-name="Layer 1-2">
    <g id="Skyline">
      <path id="Background" d="M57.1,272.8h25.9v-27.9h6.2v-3h34.5v-36.2h49.3v87h7.7v-36.7h31v3.5h18.9v-112.6h46.6v2.2h13.6s3.7-41.7,8.2-47.9,42.9-13.6,42.9-13.6l1.4-46.6s3,69.3,3,74.1h3.2v17.2h55.8v28.5h13.1v-13.4h3.2v-49.6h5v-10.7l1.8-1.8-2-1.6v-12.9h33.1v12.9l-1.8,1.6,1.4,1.8v10h6.6v49.5h3.8v107.6h12.6v-122.9h8.6v-16.3l23.1-2.6,24.5,1.4v34.5h58.7v11.2h5.2v118.7h8v-28.1l9.8-17.5,9.4,18.1h5.4v-6h6v35.1h17.6v-33.1h11v-6.6h36.1v4.4h13.6v75.2h20.8v-59.7h22.8v-4.8h29.1v113.3H0v-94.4l57.1-1.4h0v.1h0Z" style="fill: #3a4649;"/>
      <path id="Midground" d="M0,345.4v-89.5h62.3v72.8h36v-112.2h62.8v146.8h110.5v-178.2h37.2v66.1h21.1v-49.2h13.4l3.7-5.5h31.8l4.1,6.6h8.4v-15.7h2.8v-27.3h2.6v-7.1h44.7v8h2.8v26.6h2.6v37.6h3.2v31.6h20.7v-44.9s-2-28.7,3.3-41.9c16.3-1,35.6,0,35.6,0l1.4-54.8s3.7,48,3.7,53.5c5.7.2,21.2,0,21.2,0,0,0,6.5,28.9,6.5,46.6v70.6h23.6v69h9.5v-78.9h29v-27.2h41.2v21.2h7.4v5.1h10.8v2.6h20.4v3.1h11v61.6h21v-28.1h31.7v6.3h43.9v48H0v-23.2h0Z" style="fill: #515d60;"/>
      <path id="Foreground" d="M0,368.6v-54h32.6v23.3h4.7v-6.1h23.3v-8.1h52.8v8.5h5.2v-2.2h13.7v2.4h5.7v-2.6h3.6v2.3h10.5v-2.9h7.2v1.7h8.7v-2h8.9v2.7h2.3v4h5.2v4.6h6.2v15.9h13.6v-90.4h11.5v-11.2h3.9v-8.9h39.5v90.3h38.5v-96.9l50.7-6.3,28,2.3v99.8h62.9v-66.9h6.1v-16.2h25.5v81.8h10.5v-30.6h53.2v47.9h42.2v-31.9h14.4v-2.4h3.5v-4.4h4.5v-3.1h8.9v2.4h4.7v5.6h2.7v2.4h13.5v21.1h29.2s0-4.4,7.5-5.1,96.2-7,126.3-4.4v37.6H0Z" style="fill: #748184;"/>
    </g>
    <g id="Layer_2-2" data-name="Layer 2-2">
      <path d="M357.2,234.8s.4-1.5.5-1.9,0-1.6.2-1.7.6-.4.7-.6.5-2.3.7-2.7.5-1.4.5-1.4v-.5c0-.2.2-.4.2-.4,0,0-.1-.6,0-1-.3-.3-.8-.6-.8-.6,0,0-.4,0-.4.5s-.5,1.6-.5,1.6l-.3.7v.2s.3,0,.5.3.3.4.3.4c0,0-.2.2-.3.2,0,.1-.2.3-.4.2s-.5-.3-.5-.3l-.2-1.3s-.2-.2-.2-.4h.3v-.3s-.3-.3-.4-.5h.4v-.2s-.4-.3-.3-.6c.2.2.4.2.4.2v-1c0-.1,0-.9.1-1.1-.2-.4.2-1.1.2-1.1,0,0,.4-.7.9-.6s.7.3.7.3l.5-.2v-.5s.1-1.1,0-1.6c.2-.1.5.4.5.4h.5v-.3s.3,0,.4.3c.2,0,.5.3.5.3h0c0,.1.2.3.2.3l.2.9-.3.3v.5h.4l.3.3,1.1.3s.6.5.6,1h1.5l3.9-1s2.3-.2,3.2-.1,1.9.2,2.7.5,1.3.8,1.3.8c0,0-1.9-.4-2.6-.2s-.1,1-.1,1c0,0,.6.9.7,1.3-.7-.6-1.7-.8-1.9-.2s1,1.5,1,1.5l.7.7s-2.3-.8-2.9-.5-.2,1-.2,1l.7.8s-2-.8-2.3-.7-.6.3-.1.9,1,.8,1,.8c0,0-2.8-.8-2.9-.6s1.2,1.3,1.2,1.3c0,0-2.1-.7-2.4-.6s1,1.1,1,1.1c0,0-1.4-.4-1.3,0s1.5.7,1.5.7h.9s-.6.2-1,.2-.8-.2-.8,0,.5.5.5.5l-1.3-.7-2.6-2.6v2.4c0,.5.2,2.3.2,2.3h-1.2l-.4-1.4s0-.8.3-1c-.2-.6-1.2-3.4-1.2-3.4,0,0-.9,1.5-1.3,2s-.6.8-.6.8c0,0,0,.5-.2,1.2s-1.1,2.5-1.1,2.5h-.9l-.2.3h0Z" style="fill: #748184;"/>
    </g>
    <polygon points="188.53 103.87 230.04 85.99 231.76 84.24 240.76 78.63 240.23 76.33 233.46 77.81 232.25 78.2 166.79 103.87 188.53 103.87" style="fill: url(#linear-gradient);"/>
    <path d="M230.86,83.41s-.39.41-.51.96-.57.45-.56,1.14.19.68.19.68c0,0,.2.06.34-.2s1.02-1.04,1.56-1.32,2.86-1.48,2.86-1.48l1.11-.59.7-.02.35-.28s.74.04,1.26-.17.94-.65.94-.65c0,0,.91.18,1.24.02s.33-.66.33-.66l.06-.92,1.42-.47.82-.04,1.31-.74s.46-.32.57-.63c.5-.12,2.52-.72,2.95-.92s1.89-.95,1.89-.95c0,0,.35.06.54.1s.69-.37.69-.37l.5-.07.63-.41s.14-.2-.23-.23-2.46.09-2.46.09l-2.15.63s-1.26,0-1.49.27c-.36-.13-.87-.32-.87-.32l.84-.06-.03-.73.3-.02-.1-.69s.37-.23.12-.75-1.27-.24-1.27-.24c0,0-.61.3-.8.48s-.33.88-.33.88c0,0-1.31-.78-1.71-.8s-7.15-.05-7.15-.05c0,0-6.31.66-7.17,1.13,2.28-.19,3.61-.31,3.92.14s-1.29.94-1.29.94c0,0,3.07.03,3.29.85s-1.22,1.27-1.22,1.27l3.97-.52s.17.45.71.37.65-.59.65-.59l2.25-.24s-2.02.73-2.33,1.2-.05,1.04-.05,1.04c0,0-.64.7-1.33.65-.35-.51-.72-.29-.92-.05s-.39.45-.39.45c0,0-.4-.14-.87.55,0,0-.31.42-.29.71-.47.18-.7.85-.7.85l-1.33,1.02-.77-.22v-.02h0Z" style="fill: #515d60;"/>
    <path d="M601.68,70.08l6.92-2.72,4.47,7.91s.25-.48.89-.89,1.93-.64,2.96-.07c.51.41.43.23.64.4-.15-.61-1.96-9.44-1.96-9.44l5.56-2.34,4.84,9.54,2.44,11.06-4.21,4.85h-.45l-5.45-9.97s-.54,1.19-1.19,1.44c-.02.31-.06.28-.06.28l-.85.27-.19-.2s-1.07.18-1.77-.2c.14.74,1.29,6.1,1.29,6.1l-5.37,4.92-.38-.02-5.76-8.87-2.38-12.04h.01Z" style="fill: #515d60;"/>
    <path d="M636.54,96.36l6.92-2.72,4.47,7.91s.25-.48.89-.89,1.93-.64,2.96-.07c.51.41.43.23.64.4-.15-.61-1.96-9.44-1.96-9.44l5.56-2.34,4.84,9.54,2.44,11.06-4.21,4.85h-.45l-5.45-9.97s-.54,1.19-1.19,1.44c-.02.31-.06.28-.06.28l-.85.27-.19-.2s-1.07.18-1.77-.2c.14.74,1.29,6.1,1.29,6.1l-5.37,4.92-.38-.02-5.76-8.87-2.38-12.04h.01Z" style="fill: #515d60;"/>
    <path d="M588.31,106.95l6.92-2.72,4.47,7.91s.25-.48.89-.89,1.93-.64,2.96-.07c.51.41.43.23.64.4-.15-.61-1.96-9.44-1.96-9.44l5.56-2.34,4.84,9.54,2.44,11.06-4.21,4.85h-.45l-5.45-9.97s-.54,1.19-1.19,1.44c-.02.31-.06.28-.06.28l-.85.27-.19-.2s-1.07.18-1.77-.2c.14.74,1.29,6.1,1.29,6.1l-5.37,4.92-.38-.02-5.76-8.87-2.38-12.04h.01Z" style="fill: #515d60;"/>
    <g>
      <circle cx="716.16" cy="62.92" r="52.86" style="fill: url(#linear-gradient-2);"/>
      <g style="clip-path: url(#clippath);">
        <line x1="661.12" y1="73.99" x2="770.32" y2="51.31" style="fill: none; stroke: url(#linear-gradient-3); stroke-miterlimit: 10; stroke-width: 4px;"/>
      </g>
    </g>
    <ellipse cx="697.88" cy="44.59" rx="16.84" ry="13.72" transform="translate(376.44 665.63) rotate(-66.29)" style="fill: url(#linear-gradient-4);"/>
  </g>
</svg>