<?xml version="1.0" encoding="UTF-8"?>
<svg id="Layer_2" data-name="Layer 2" xmlns="http://www.w3.org/2000/svg" xmlns:xlink="http://www.w3.org/1999/xlink" viewBox="0 0 479 792">
  <defs>
    <linearGradient id="linear-gradient" x1="370.16" y1="1421.7" x2="447.48" y2="1435.33" gradientTransform="translate(0 1518.8) scale(1 -1)" gradientUnits="userSpaceOnUse">
      <stop offset=".21" stop-color="#515d60"/>
      <stop offset=".28" stop-color="#4b575a"/>
      <stop offset=".61" stop-color="#343e41"/>
      <stop offset=".82" stop-color="#2c3639"/>
    </linearGradient>
    <clipPath id="clippath">
      <circle cx="412.73" cy="89.59" r="45.71" style="fill: none;"/>
    </clipPath>
    <linearGradient id="linear-gradient-2" x1="364.79" y1="1125.44" x2="459.92" y2="1125.44" gradientTransform="translate(0 1214.8) scale(1 -1)" gradientUnits="userSpaceOnUse">
      <stop offset="0" stop-color="#959a9c"/>
      <stop offset=".03" stop-color="#8d9295"/>
      <stop offset=".22" stop-color="#6a7174"/>
      <stop offset=".41" stop-color="#4f575a"/>
      <stop offset=".61" stop-color="#3b4447"/>
      <stop offset=".8" stop-color="#2f393c"/>
      <stop offset="1" stop-color="#2c3639"/>
    </linearGradient>
    <linearGradient id="linear-gradient-3" x1="384.58" y1="1445.05" x2="409.26" y2="1445.05" gradientTransform="translate(-1085.75 291.39) rotate(66.29) scale(1 -1)" gradientUnits="userSpaceOnUse">
      <stop offset=".18" stop-color="#2c3639"/>
      <stop offset=".39" stop-color="#343e41"/>
      <stop offset=".72" stop-color="#4b575a"/>
      <stop offset=".79" stop-color="#515d60"/>
    </linearGradient>
    <linearGradient id="linear-gradient-4" x1="130.18" y1="1119.93" x2="164.24" y2="1178.93" gradientTransform="translate(0 1518.8) scale(1 -1)" gradientUnits="userSpaceOnUse">
      <stop offset=".08" stop-color="#2c3639"/>
      <stop offset=".58" stop-color="#748184"/>
    </linearGradient>
  </defs>
  <g id="Layer_2-2" data-name="Layer 2">
    <rect width="479" height="792" style="fill: #2c3639;"/>
  </g>
  <g id="Layer_1-2" data-name="Layer 1-2">
    <g id="Skyline">
      <path id="Background" d="M34.54,734.1h15.67v-16.86h3.75v-1.81h20.87v-21.88h29.82v52.58h4.66v-22.18h18.75v2.12h11.43v-68.06h28.19v1.33h8.23s2.24-25.2,4.96-28.95,25.95-8.22,25.95-8.22l.85-28.17s1.81,41.89,1.81,44.79h1.94v10.4h33.75v17.23h7.92v-8.1h1.94v-29.98h3.02v-6.47l1.09-1.09-1.21-.97v-7.8h20.02v7.8l-1.09.97.85,1.09v6.04h3.99v29.92h2.3v65.03h7.62v-74.28h5.2v-9.85l13.97-1.57,14.82.85v20.85h35.51v6.77h3.15v71.74h4.84v-16.98l5.93-10.58,5.69,10.94h3.27v-3.63h3.63v21.21h10.65v-20.01h6.65v-3.99h21.84v2.66h8.23v45.45h12.58v-36.08h13.79v-2.9h17.6v68.48H0v-57.06l34.54-.85h0v.06h0Z" style="fill: #3a4649;"/>
      <path id="Midground" d="M0,777.98v-54.09h37.68v44h21.78v-67.81h37.99v88.73h66.84v-107.71h22.5v39.95h12.76v-29.74h8.11l2.24-3.32h19.23l2.48,3.99h5.08v-9.49h1.69v-16.5h1.57v-4.29h27.04v4.84h1.69v16.08h1.57v22.73h1.94v19.1h12.52v-27.14s-1.21-17.35,2-25.32c9.86-.6,21.53,0,21.53,0l.85-33.12s2.24,29.01,2.24,32.34c3.45.12,12.82,0,12.82,0,0,0,3.93,17.47,3.93,28.17v42.67h14.28v41.7h5.75v-47.69h17.54v-16.44h24.92v12.81h4.48v3.08h6.53v1.57h12.34v1.87h6.65v37.23h12.7v-16.98h19.17v3.81h26.55v29.01H0v-14.02h0Z" style="fill: #515d60;"/>
      <path id="Foreground" d="M0,792v-32.64h19.72v14.08h2.84v-3.69h14.09v-4.9h31.94v5.14h3.15v-1.33h8.29v1.45h3.45v-1.57h2.18v1.39h6.35v-1.75h4.36v1.03h5.26v-1.21h5.38v1.63h1.39v2.42h3.15v2.78h3.75v9.61h8.23v-54.64h6.96v-6.77h2.36v-5.38h23.89v54.58h23.29v-58.57l30.67-3.81,16.94,1.39v60.32h38.05v-40.43h3.69v-9.79h15.42v49.44h6.35v-18.49h32.18v28.95h25.53v-19.28h8.71v-1.45h2.12v-2.66h2.72v-1.87h5.38v1.45h2.84v3.38h1.63v1.45h8.17v12.75h17.66s0-2.66,4.54-3.08,58.19-4.23,76.4-2.66v22.73H0Z" style="fill: #748184;"/>
    </g>
    <g id="Layer_2-2" data-name="Layer 2-2">
      <path d="M216.06,711.13s.24-.91.3-1.15,0-.97.12-1.03.36-.24.42-.36.3-1.39.42-1.63.3-.85.3-.85v-.3c0-.12.12-.24.12-.24,0,0-.06-.36,0-.6-.18-.18-.48-.36-.48-.36,0,0-.24,0-.24.3s-.3.97-.3.97l-.18.42v.12s.18,0,.3.18.18.24.18.24c0,0-.12.12-.18.12,0,.06-.12.18-.24.12s-.3-.18-.3-.18l-.12-.79s-.12-.12-.12-.24h.18v-.18s-.18-.18-.24-.3h.24v-.12s-.24-.18-.18-.36c.12.12.24.12.24.12v-.6c0-.06,0-.54.06-.66-.12-.24.12-.66.12-.66,0,0,.24-.42.54-.36s.42.18.42.18l.3-.12v-.3s.06-.66,0-.97c.12-.06.3.24.3.24h.3v-.18s.18,0,.24.18c.12,0,.3.18.3.18h0c0,.06.12.18.12.18l.12.54-.18.18v.3h.24l.18.18.67.18s.36.3.36.6h.91l2.36-.6s1.39-.12,1.94-.06,1.15.12,1.63.3.79.48.79.48c0,0-1.15-.24-1.57-.12s-.06.6-.06.6c0,0,.36.54.42.79-.42-.36-1.03-.48-1.15-.12s.6.91.6.91l.42.42s-1.39-.48-1.75-.3-.12.6-.12.6l.42.48s-1.21-.48-1.39-.42-.36.18-.06.54.6.48.6.48c0,0-1.69-.48-1.75-.36s.73.79.73.79c0,0-1.27-.42-1.45-.36s.6.66.6.66c0,0-.85-.24-.79,0s.91.42.91.42h.54s-.36.12-.6.12-.48-.12-.48,0,.3.3.3.3l-.79-.42-1.57-1.57v1.45c0,.3.12,1.39.12,1.39h-.73l-.24-.85s0-.48.18-.6c-.12-.36-.73-2.05-.73-2.05,0,0-.54.91-.79,1.21s-.36.48-.36.48c0,0,0,.3-.12.73s-.67,1.51-.67,1.51h-.54l-.12.18h0Z" style="fill: #748184;"/>
    </g>
  </g>
  <g id="Layer_3" data-name="Layer 3">
    <path d="M286.24,129.34l5.98-2.35,3.87,6.84s.22-.42.77-.77,1.67-.55,2.56-.06c.44.35.37.2.55.35-.13-.53-1.69-8.16-1.69-8.16l4.81-2.02,4.19,8.25,2.11,9.56-3.64,4.19h-.39l-4.71-8.62s-.47,1.03-1.03,1.25c-.02.27-.05.24-.05.24l-.73.23-.16-.17s-.93.16-1.53-.17c.12.64,1.12,5.27,1.12,5.27l-4.64,4.25-.33-.02-4.98-7.67-2.06-10.41h0Z" style="fill: #515d60;"/>
    <path d="M320.74,179.56l5.98-2.35,3.87,6.84s.22-.42.77-.77,1.67-.55,2.56-.06c.44.35.37.2.55.35-.13-.53-1.69-8.16-1.69-8.16l4.81-2.02,4.19,8.25,2.11,9.56-3.64,4.19h-.39l-4.71-8.62s-.47,1.03-1.03,1.25c-.02.27-.05.24-.05.24l-.73.23-.16-.17s-.93.16-1.53-.17c.12.64,1.12,5.27,1.12,5.27l-4.64,4.25-.33-.02-4.98-7.67-2.06-10.41h0Z" style="fill: #515d60;"/>
    <path d="M251.11,186.23l5.98-2.35,3.87,6.84s.22-.42.77-.77,1.67-.55,2.56-.06c.44.35.37.2.55.35-.13-.53-1.69-8.16-1.69-8.16l4.81-2.02,4.19,8.25,2.11,9.56-3.64,4.19h-.39l-4.71-8.62s-.47,1.03-1.03,1.25c-.02.27-.05.24-.05.24l-.73.23-.16-.17s-.93.16-1.53-.17c.12.64,1.12,5.27,1.12,5.27l-4.64,4.25-.33-.02-4.98-7.67-2.06-10.41h0Z" style="fill: #515d60;"/>
    <g>
      <circle cx="412.73" cy="89.59" r="45.71" style="fill: url(#linear-gradient);"/>
      <g style="clip-path: url(#clippath);">
        <line x1="365.14" y1="99.17" x2="459.57" y2="79.56" style="fill: none; stroke: url(#linear-gradient-2); stroke-miterlimit: 10; stroke-width: 3.46px;"/>
      </g>
    </g>
    <ellipse cx="396.93" cy="73.74" rx="14.56" ry="11.86" transform="translate(169.81 407.52) rotate(-66.29)" style="fill: url(#linear-gradient-3);"/>
  </g>
  <g id="Layer_4" data-name="Layer 4">
    <path d="M171.57,372.35s-.45.47-.59,1.11-.66.52-.65,1.32.22.79.22.79c0,0,.23.07.39-.23s1.18-1.2,1.8-1.53,3.31-1.71,3.31-1.71l1.28-.68.81-.02.4-.32s.86.05,1.46-.2,1.09-.75,1.09-.75c0,0,1.05.21,1.43.02s.38-.76.38-.76l.07-1.06,1.64-.54.95-.05,1.51-.86s.53-.37.66-.73c.58-.14,2.91-.83,3.41-1.06s2.18-1.1,2.18-1.1c0,0,.4.07.62.12s.8-.43.8-.43l.58-.08.73-.47s.16-.23-.27-.27-2.84.1-2.84.1l-2.49.73s-1.46,0-1.72.31c-.42-.15-1.01-.37-1.01-.37l.97-.07-.03-.84.35-.02-.12-.8s.43-.27.14-.87-1.47-.28-1.47-.28c0,0-.71.35-.92.55s-.38,1.02-.38,1.02c0,0-1.51-.9-1.98-.92s-8.27-.06-8.27-.06c0,0-7.29.76-8.29,1.31,2.64-.22,4.17-.36,4.53.16s-1.49,1.09-1.49,1.09c0,0,3.55.03,3.8.98s-1.41,1.47-1.41,1.47l4.59-.6s.2.52.82.43.75-.68.75-.68l2.6-.28s-2.34.84-2.69,1.39-.06,1.2-.06,1.2c0,0-.74.81-1.54.75-.4-.59-.83-.34-1.06-.06s-.45.52-.45.52c0,0-.46-.16-1.01.64,0,0-.36.49-.34.82-.54.21-.81.98-.81.98l-1.54,1.18-.89-.25v-.02h.01Z" style="fill: #515d60;"/>
    <polygon points="122.63 396 170.62 375.33 172.61 373.31 183.01 366.82 182.4 364.16 174.57 365.87 173.17 366.32 97.5 396 122.63 396" style="fill: url(#linear-gradient-4);"/>
  </g>
</svg>