<?xml version="1.0" encoding="UTF-8"?>
<svg id="Skyline" xmlns="http://www.w3.org/2000/svg" viewBox="0 0 792 327.59">
  <defs>
    <style>
      .cls-1 {
        fill: #d52d27;
      }

      .cls-2 {
        fill: #fdba12;
      }

      .cls-3 {
        fill: #019247;
      }
    </style>
  </defs>
  <path id="Background" class="cls-1" d="M57.06,231.78h25.85v-27.95h6.2v-2.99h34.47v-36.19h49.35v87.04h7.69v-36.7h31v3.47h18.85v-112.58h46.62v2.23h13.64s3.72-41.66,8.18-47.86,42.9-13.64,42.9-13.64l1.49-46.62s2.98,69.34,2.98,74.1l3.22.04v17.11h55.79v28.52h13.14v-13.39h3.22v-49.59h4.96v-10.66l1.79-1.83-1.95-1.6v-12.93h33.07v12.93l-1.83,1.6,1.37,1.83v9.95h6.64v49.54h3.78v107.64h12.6v-122.89h8.62v-16.28l23.05-2.57,24.46,1.4v34.48h58.74v11.23h5.21v118.68h8.02v-28.07l9.82-17.52,9.42,18.13h5.41v-6.01h6.01v35.08h17.64v-33.08h11.03v-6.62h36.08v4.41h13.63v75.18h20.85v-59.74h22.85v-4.81h29.08v113.32H0v-94.37l57.06-1.44Z"/>
  <path id="Midground" class="cls-2" d="M0,304.37v-89.52h62.32v72.75h36.03v-112.18h62.78v146.77h110.51v-178.21h37.19v66.11h21.07v-49.17h13.39l3.74-5.47h31.8l4.11,6.55h8.42v-15.71h2.81v-27.31h2.62v-7.11h44.7v8.04h2.81v26.56h2.62v37.6h3.18v31.61h20.74v-44.87s-1.97-28.7,3.33-41.93c16.29-1.02,35.62,0,35.62,0l1.42-54.76s3.66,48.04,3.66,53.54c5.7.2,21.17,0,21.17,0,0,0,6.51,28.91,6.51,46.62v70.64h23.61v69.01h9.49v-78.89h29.01v-27.17h41.21v21.18h7.37v5.15h10.8v2.57h20.4v3.09h10.97v61.56h20.95v-28.14h31.69v6.34h43.94v48H0v-23.22Z"/>
  <path id="Foreground" class="cls-3" d="M0,327.59v-53.99h32.58v23.26h4.65v-6.09h23.27v-8.12h52.81v8.49h5.17v-2.22h13.66v2.4h5.73v-2.58h3.58v2.29h10.46v-2.87h7.17v1.72h8.74v-2.01h8.89v2.72h2.29v4.01h5.16v4.59h6.16v15.91h13.64v-90.44h11.53v-11.2h3.95v-8.9h39.53v90.27h38.55v-96.86l50.73-6.26,28,2.31v99.82h62.92v-66.88h6.15v-16.21h25.47v81.8h10.55v-30.61h53.25v47.85h42.19v-31.9h14.41v-2.36h3.46v-4.37h4.55v-3.09h8.91v2.36h4.73v5.64h2.73v2.36h13.46v21.1h29.2s0-4.39,7.48-5.12,96.2-6.97,126.28-4.42v37.57H0Z"/>
</svg>