<?xml version="1.0" encoding="UTF-8"?>
<svg xmlns="http://www.w3.org/2000/svg" xmlns:xlink="http://www.w3.org/1999/xlink" version="1.1" viewBox="0 0 792 368.6">
  <!-- Generator: Adobe Illustrator 29.5.0, SVG Export Plug-In . SVG Version: 2.1.0 Build 137)  -->
  <defs>
    <style>
      .st0, .st1, .st2 {
        fill: none;
      }

      .st3 {
        fill: #515d60;
      }

      .st4 {
        fill: url(#linear-gradient1);
      }

      .st5 {
        fill: url(#linear-gradient3);
      }

      .st6 {
        fill: url(#linear-gradient6);
      }

      .st7 {
        fill: url(#linear-gradient7);
      }

      .st8 {
        fill: url(#linear-gradient4);
      }

      .st9 {
        fill: #748184;
      }

      .st10 {
        fill: url(#linear-gradient);
      }

      .st1 {
        stroke: url(#linear-gradient5);
        stroke-width: 3.5px;
      }

      .st1, .st2 {
        stroke-miterlimit: 10;
      }

      .st2 {
        stroke: url(#linear-gradient2);
        stroke-width: 4px;
      }

      .st11 {
        clip-path: url(#clippath-1);
      }

      .st12 {
        fill: #3a4649;
      }

      .st13 {
        clip-path: url(#clippath);
      }

      .st14 {
        fill: #2c3639;
      }
    </style>
    <linearGradient id="linear-gradient" x1="195.1" y1="565.7" x2="224.5" y2="616.7" gradientTransform="translate(0 672) scale(1 -1)" gradientUnits="userSpaceOnUse">
      <stop offset="0" stop-color="#2c3639"/>
      <stop offset=".6" stop-color="#748184"/>
    </linearGradient>
    <linearGradient id="linear-gradient1" x1="666.9" y1="600.4" x2="756.3" y2="616.2" gradientTransform="translate(0 672) scale(1 -1)" gradientUnits="userSpaceOnUse">
      <stop offset=".2" stop-color="#515d60"/>
      <stop offset=".3" stop-color="#4b575a"/>
      <stop offset=".6" stop-color="#343e41"/>
      <stop offset=".8" stop-color="#2c3639"/>
    </linearGradient>
    <clipPath id="clippath">
      <circle class="st0" cx="716.2" cy="62.9" r="52.9"/>
    </clipPath>
    <linearGradient id="linear-gradient2" x1="660.7" y1="305.4" x2="770.7" y2="305.4" gradientTransform="translate(0 368) scale(1 -1)" gradientUnits="userSpaceOnUse">
      <stop offset="0" stop-color="#959a9c"/>
      <stop offset="0" stop-color="#8d9295"/>
      <stop offset=".2" stop-color="#6a7174"/>
      <stop offset=".4" stop-color="#4f575a"/>
      <stop offset=".6" stop-color="#3b4447"/>
      <stop offset=".8" stop-color="#2f393c"/>
      <stop offset="1" stop-color="#2c3639"/>
    </linearGradient>
    <linearGradient id="linear-gradient3" x1="683.6" y1="627.4" x2="712.1" y2="627.4" gradientTransform="translate(-157.2 -342.1) rotate(66.3) scale(1 -1)" gradientUnits="userSpaceOnUse">
      <stop offset=".2" stop-color="#2c3639"/>
      <stop offset=".4" stop-color="#343e41"/>
      <stop offset=".7" stop-color="#4b575a"/>
      <stop offset=".8" stop-color="#515d60"/>
    </linearGradient>
    <linearGradient id="linear-gradient4" x1="1263.5" y1="998.3" x2="1340.8" y2="1011.9" xlink:href="#linear-gradient1"/>
    <clipPath id="clippath-1">
      <circle class="st0" cx="1306" cy="-333.8" r="45.7"/>
    </clipPath>
    <linearGradient id="linear-gradient5" x1="1258.1" y1="702" x2="1353.2" y2="702" xlink:href="#linear-gradient2"/>
    <linearGradient id="linear-gradient6" x1="1277.9" y1="1021.7" x2="1302.6" y2="1021.7" gradientTransform="translate(-164 -1120.2) rotate(66.3) scale(1 -1)" xlink:href="#linear-gradient3"/>
    <linearGradient id="linear-gradient7" x1="1023.5" y1="696.5" x2="1057.5" y2="755.5" xlink:href="#linear-gradient"/>
  </defs>
  <g id="Layer_1">
    <g id="Layer_2">
      <rect class="st14" width="792" height="368.5"/>
    </g>
    <g id="Layer_1-2">
      <g id="Skyline">
        <path id="Background" class="st12" d="M57.1,272.8h25.9v-27.9h6.2v-3h34.5v-36.2h49.3v87h7.7v-36.7h31v3.5h18.9v-112.6h46.6v2.2h13.6s3.7-41.7,8.2-47.9,42.9-13.6,42.9-13.6l1.4-46.6s3,69.3,3,74.1h3.2v17.2h55.8v28.5h13.1v-13.4h3.2v-49.6h5v-10.7l1.8-1.8-2-1.6v-12.9h33.1v12.9l-1.8,1.6,1.4,1.8v10h6.6v49.5h3.8v107.6h12.6v-122.9h8.6v-16.3l23.1-2.6,24.5,1.4v34.5h58.7v11.2h5.2v118.7h8v-28.1l9.8-17.5,9.4,18.1h5.4v-6h6v35.1h17.6v-33.1h11v-6.6h36.1v4.4h13.6v75.2h20.8v-59.7h22.8v-4.8h29.1v113.3H0v-94.4l57.1-1.4h0q0,.1,0,0Z"/>
        <path id="Midground" class="st3" d="M0,345.4v-89.5h62.3v72.8h36v-112.2h62.8v146.8h110.5v-178.2h37.2v66.1h21.1v-49.2h13.4l3.7-5.5h31.8l4.1,6.6h8.4v-15.7h2.8v-27.3h2.6v-7.1h44.7v8h2.8v26.6h2.6v37.6h3.2v31.6h20.7v-44.9s-2-28.7,3.3-41.9c16.3-1,35.6,0,35.6,0l1.4-54.8s3.7,48,3.7,53.5c5.7.2,21.2,0,21.2,0,0,0,6.5,28.9,6.5,46.6v70.6h23.6v69h9.5v-78.9h29v-27.2h41.2v21.2h7.4v5.1h10.8v2.6h20.4v3.1h11v61.6h21v-28.1h31.7v6.3h43.9v48H0v-23.2h0Z"/>
        <path id="Foreground" class="st9" d="M0,368.6v-54h32.6v23.3h4.7v-6.1h23.3v-8.1h52.8v8.5h5.2v-2.2h13.7v2.4h5.7v-2.6h3.6v2.3h10.5v-2.9h7.2v1.7h8.7v-2h8.9v2.7h2.3v4h5.2v4.6h6.2v15.9h13.6v-90.4h11.5v-11.2h3.9v-8.9h39.5v90.3h38.5v-96.9l50.7-6.3,28,2.3v99.8h62.9v-66.9h6.1v-16.2h25.5v81.8h10.5v-30.6h53.2v47.9h42.2v-31.9h14.4v-2.4h3.5v-4.4h4.5v-3.1h8.9v2.4h4.7v5.6h2.7v2.4h13.5v21.1h29.2s0-4.4,7.5-5.1,96.2-7,126.3-4.4v37.6H0Z"/>
      </g>
      <g id="Layer_2-2">
        <path class="st9" d="M357.2,234.8s.4-1.5.5-1.9,0-1.6.2-1.7.6-.4.7-.6.5-2.3.7-2.7.5-1.4.5-1.4v-.5c0-.2.2-.4.2-.4,0,0-.1-.6,0-1-.3-.3-.8-.6-.8-.6,0,0-.4,0-.4.5s-.5,1.6-.5,1.6l-.3.7v.2s.3,0,.5.3.3.4.3.4c0,0-.2.2-.3.2,0,.1-.2.3-.4.2s-.5-.3-.5-.3l-.2-1.3s-.2-.2-.2-.4h.3v-.3s-.3-.3-.4-.5h.4v-.2s-.4-.3-.3-.6c.2.2.4.2.4.2v-1c0-.1,0-.9.1-1.1-.2-.4.2-1.1.2-1.1,0,0,.4-.7.9-.6s.7.3.7.3l.5-.2v-.5s.1-1.1,0-1.6c.2-.1.5.4.5.4h.5v-.3s.3,0,.4.3c.2,0,.5.3.5.3h0c0,.1.2.3.2.3l.2.9-.3.3v.5h.4l.3.3,1.1.3s.6.5.6,1h1.5l3.9-1s2.3-.2,3.2-.1,1.9.2,2.7.5,1.3.8,1.3.8c0,0-1.9-.4-2.6-.2s-.1,1-.1,1c0,0,.6.9.7,1.3-.7-.6-1.7-.8-1.9-.2s1,1.5,1,1.5l.7.7s-2.3-.8-2.9-.5-.2,1-.2,1l.7.8s-2-.8-2.3-.7-.6.3-.1.9,1,.8,1,.8c0,0-2.8-.8-2.9-.6s1.2,1.3,1.2,1.3c0,0-2.1-.7-2.4-.6s1,1.1,1,1.1c0,0-1.4-.4-1.3,0s1.5.7,1.5.7h.9s-.6.2-1,.2-.8-.2-.8,0,.5.5.5.5l-1.3-.7-2.6-2.6v2.4c0,.5.2,2.3.2,2.3h-1.2l-.4-1.4s0-.8.3-1c-.2-.6-1.2-3.4-1.2-3.4,0,0-.9,1.5-1.3,2s-.6.8-.6.8c0,0,0,.5-.2,1.2s-1.1,2.5-1.1,2.5h-.9l-.2.3h0Z"/>
      </g>
      <polygon class="st10" points="188.5 103.9 230 86 231.8 84.2 240.8 78.6 240.2 76.3 233.5 77.8 232.2 78.2 166.8 103.9 188.5 103.9"/>
      <path class="st3" d="M230.9,83.4s-.4.4-.5,1-.6.4-.6,1.1.2.7.2.7c0,0,.2,0,.3-.2s1-1,1.6-1.3,2.9-1.5,2.9-1.5l1.1-.6h.7s.4-.3.4-.3c0,0,.7,0,1.3-.2s.9-.7.9-.7c0,0,.9.2,1.2,0s.3-.7.3-.7v-.9c0,0,1.5-.5,1.5-.5h.8s1.3-.8,1.3-.8c0,0,.5-.3.6-.6.5-.1,2.5-.7,2.9-.9s1.9-.9,1.9-.9c0,0,.4,0,.5,0s.7-.4.7-.4h.5c0,0,.6-.5.6-.5,0,0,.1-.2-.2-.2s-2.5,0-2.5,0l-2.1.6s-1.3,0-1.5.3c-.4-.1-.9-.3-.9-.3h.8c0,0,0-.8,0-.8h.3s-.1-.7-.1-.7c0,0,.4-.2.1-.8s-1.3-.2-1.3-.2c0,0-.6.3-.8.5s-.3.9-.3.9c0,0-1.3-.8-1.7-.8s-7.1,0-7.1,0c0,0-6.3.7-7.2,1.1,2.3-.2,3.6-.3,3.9.1s-1.3.9-1.3.9c0,0,3.1,0,3.3.8s-1.2,1.3-1.2,1.3l4-.5s.2.4.7.4.6-.6.6-.6l2.2-.2s-2,.7-2.3,1.2,0,1,0,1c0,0-.6.7-1.3.7-.4-.5-.7-.3-.9,0s-.4.4-.4.4c0,0-.4-.1-.9.6,0,0-.3.4-.3.7-.5.2-.7.8-.7.8l-1.3,1-.8-.2h0s0,0,0,0Z"/>
      <path class="st3" d="M601.7,70.1l6.9-2.7,4.5,7.9s.2-.5.9-.9,1.9-.6,3,0c.5.4.4.2.6.4-.2-.6-2-9.4-2-9.4l5.6-2.3,4.8,9.5,2.4,11.1-4.2,4.8h-.5l-5.5-10s-.5,1.2-1.2,1.4c0,.3,0,.3,0,.3l-.8.3-.2-.2s-1.1.2-1.8-.2c.1.7,1.3,6.1,1.3,6.1l-5.4,4.9h-.4s-5.8-8.9-5.8-8.9l-2.4-12h0Z"/>
      <path class="st3" d="M636.5,96.4l6.9-2.7,4.5,7.9s.2-.5.9-.9,1.9-.6,3,0c.5.4.4.2.6.4-.2-.6-2-9.4-2-9.4l5.6-2.3,4.8,9.5,2.4,11.1-4.2,4.8h-.5l-5.5-10s-.5,1.2-1.2,1.4c0,.3,0,.3,0,.3l-.8.3-.2-.2s-1.1.2-1.8-.2c.1.7,1.3,6.1,1.3,6.1l-5.4,4.9h-.4s-5.8-8.9-5.8-8.9l-2.4-12h0Z"/>
      <path class="st3" d="M588.3,106.9l6.9-2.7,4.5,7.9s.2-.5.9-.9,1.9-.6,3,0c.5.4.4.2.6.4-.2-.6-2-9.4-2-9.4l5.6-2.3,4.8,9.5,2.4,11.1-4.2,4.8h-.5l-5.5-10s-.5,1.2-1.2,1.4c0,.3,0,.3,0,.3l-.8.3-.2-.2s-1.1.2-1.8-.2c.1.7,1.3,6.1,1.3,6.1l-5.4,4.9h-.4s-5.8-8.9-5.8-8.9l-2.4-12h0Z"/>
      <g>
        <circle class="st4" cx="716.2" cy="62.9" r="52.9"/>
        <g class="st13">
          <line class="st2" x1="661.1" y1="74" x2="770.3" y2="51.3"/>
        </g>
      </g>
      <ellipse class="st5" cx="697.9" cy="44.6" rx="16.8" ry="13.7" transform="translate(376.4 665.6) rotate(-66.3)"/>
    </g>
  </g>
  <g id="Layer_21" data-name="Layer_2">
    <g id="Layer_22" data-name="Layer_2">
      <rect class="st14" x="893.3" y="-423.4" width="479" height="792"/>
    </g>
    <g id="Layer_1-21" data-name="Layer_1-2">
      <g id="Skyline1" data-name="Skyline">
        <path id="Background1" data-name="Background" class="st12" d="M927.8,310.7h15.7v-16.9h3.8v-1.8h20.9v-21.9h29.8v52.6h4.7v-22.2h18.8v2.1h11.4v-68.1h28.2v1.3h8.2s2.2-25.2,5-29,25.9-8.2,25.9-8.2l.8-28.2s1.8,41.9,1.8,44.8h1.9v10.4h33.8v17.2h7.9v-8.1h1.9v-30h3v-6.5l1.1-1.1-1.2-1v-7.8h20v7.8l-1.1,1,.8,1.1v6h4v29.9h2.3v65h7.6v-74.3h5.2v-9.9l14-1.6,14.8.8v20.9h35.5v6.8h3.1v71.7h4.8v-17l5.9-10.6,5.7,10.9h3.3v-3.6h3.6v21.2h10.6v-20h6.7v-4h21.8v2.7h8.2v45.5h12.6v-36.1h13.8v-2.9h17.6v68.5h-478.9v-57.1l34.5-.8h0q0,0,0,0Z"/>
        <path id="Midground1" data-name="Midground" class="st3" d="M893.3,354.6v-54.1h37.7v44h21.8v-67.8h38v88.7h66.8v-107.7h22.5v40h12.8v-29.7h8.1l2.2-3.3h19.2l2.5,4h5.1v-9.5h1.7v-16.5h1.6v-4.3h27v4.8h1.7v16.1h1.6v22.7h1.9v19.1h12.5v-27.1s-1.2-17.3,2-25.3c9.9-.6,21.5,0,21.5,0l.8-33.1s2.2,29,2.2,32.3c3.4.1,12.8,0,12.8,0,0,0,3.9,17.5,3.9,28.2v42.7h14.3v41.7h5.7v-47.7h17.5v-16.4h24.9v12.8h4.5v3.1h6.5v1.6h12.3v1.9h6.7v37.2h12.7v-17h19.2v3.8h26.6v29h-479v-14h0Z"/>
        <path id="Foreground1" data-name="Foreground" class="st9" d="M893.3,368.6v-32.6h19.7v14.1h2.8v-3.7h14.1v-4.9h31.9v5.1h3.1v-1.3h8.3v1.5h3.4v-1.6h2.2v1.4h6.4v-1.8h4.4v1h5.3v-1.2h5.4v1.6h1.4v2.4h3.1v2.8h3.8v9.6h8.2v-54.6h7v-6.8h2.4v-5.4h23.9v54.6h23.3v-58.6l30.7-3.8,16.9,1.4v60.3h38v-40.4h3.7v-9.8h15.4v49.4h6.4v-18.5h32.2v29h25.5v-19.3h8.7v-1.5h2.1v-2.7h2.7v-1.9h5.4v1.5h2.8v3.4h1.6v1.5h8.2v12.8h17.7s0-2.7,4.5-3.1,58.2-4.2,76.4-2.7v22.7h-479Z"/>
      </g>
      <g id="Layer_2-21" data-name="Layer_2-2">
        <path class="st9" d="M1109.4,287.7s.2-.9.3-1.1,0-1,.1-1,.4-.2.4-.4.3-1.4.4-1.6.3-.8.3-.8v-.3c0-.1.1-.2.1-.2,0,0,0-.4,0-.6-.2-.2-.5-.4-.5-.4,0,0-.2,0-.2.3s-.3,1-.3,1l-.2.4h0c0,.1.2.1.3.3s.2.2.2.2c0,0-.1.1-.2.1,0,0-.1.2-.2.1s-.3-.2-.3-.2v-.8c-.1,0-.2-.1-.2-.2h.2v-.2s-.2-.2-.2-.3h.2c0-.1-.2-.3-.2-.5.1.1.2.1.2.1v-.6c0,0,0-.5,0-.7-.1-.2.1-.7.1-.7,0,0,.2-.4.5-.4s.4.2.4.2h.3v-.4s0-.7,0-1c.1,0,.3.2.3.2h.3v-.2s.2,0,.2.2c.1,0,.3.2.3.2h0c0,0,.1.2.1.2v.5c.1,0,0,.2,0,.2v.3h.2l.2.2.7.2s.4.3.4.6h.9l2.4-.6s1.4-.1,1.9,0,1.1.1,1.6.3.8.5.8.5c0,0-1.1-.2-1.6-.1s0,.6,0,.6c0,0,.4.5.4.8-.4-.4-1-.5-1.1-.1s.6.9.6.9l.4.4s-1.4-.5-1.8-.3-.1.6-.1.6l.4.5s-1.2-.5-1.4-.4-.4.2,0,.5.6.5.6.5c0,0-1.7-.5-1.8-.4s.7.8.7.8c0,0-1.3-.4-1.5-.4s.6.7.6.7c0,0-.8-.2-.8,0s.9.4.9.4h.5s-.4.1-.6.1-.5-.1-.5,0,.3.3.3.3l-.8-.4-1.6-1.6v1.5c0,.3.1,1.4.1,1.4h-.7l-.2-.8s0-.5.2-.6c-.1-.4-.7-2.1-.7-2.1,0,0-.5.9-.8,1.2s-.4.5-.4.5c0,0,0,.3-.1.7s-.7,1.5-.7,1.5h-.5v.2h-.1Z"/>
      </g>
    </g>
    <g id="Layer_3">
      <path class="st3" d="M1179.5-294.1l6-2.4,3.9,6.8s.2-.4.8-.8,1.7-.6,2.6,0c.4.4.4.2.6.3-.1-.5-1.7-8.2-1.7-8.2l4.8-2,4.2,8.2,2.1,9.6-3.6,4.2h-.4l-4.7-8.6s-.5,1-1,1.2c0,.3,0,.2,0,.2l-.7.2-.2-.2s-.9.2-1.5-.2c.1.6,1.1,5.3,1.1,5.3l-4.6,4.3h-.3s-5-7.7-5-7.7l-2.1-10.4h0Z"/>
      <path class="st3" d="M1214-243.8l6-2.4,3.9,6.8s.2-.4.8-.8,1.7-.6,2.6,0c.4.4.4.2.6.3-.1-.5-1.7-8.2-1.7-8.2l4.8-2,4.2,8.2,2.1,9.6-3.6,4.2h-.4l-4.7-8.6s-.5,1-1,1.2c0,.3,0,.2,0,.2l-.7.2-.2-.2s-.9.2-1.5-.2c.1.6,1.1,5.3,1.1,5.3l-4.6,4.3h-.3s-5-7.7-5-7.7l-2.1-10.4h0Z"/>
      <path class="st3" d="M1144.4-237.2l6-2.4,3.9,6.8s.2-.4.8-.8,1.7-.6,2.6,0c.4.4.4.2.6.3-.1-.5-1.7-8.2-1.7-8.2l4.8-2,4.2,8.2,2.1,9.6-3.6,4.2h-.4l-4.7-8.6s-.5,1-1,1.2c0,.3,0,.2,0,.2l-.7.2-.2-.2s-.9.2-1.5-.2c.1.6,1.1,5.3,1.1,5.3l-4.6,4.3h-.3s-5-7.7-5-7.7l-2.1-10.4h0Z"/>
      <g>
        <circle class="st8" cx="1306" cy="-333.8" r="45.7"/>
        <g class="st11">
          <line class="st1" x1="1258.4" y1="-324.2" x2="1352.9" y2="-343.8"/>
        </g>
      </g>
      <ellipse class="st6" cx="1290.2" cy="-349.7" rx="14.6" ry="11.9" transform="translate(1091.6 972.3) rotate(-66.3)"/>
    </g>
    <g id="Layer_4">
      <path class="st3" d="M1064.9-51.1s-.5.5-.6,1.1-.7.5-.6,1.3.2.8.2.8c0,0,.2,0,.4-.2s1.2-1.2,1.8-1.5,3.3-1.7,3.3-1.7l1.3-.7h.8s.4-.3.4-.3c0,0,.9,0,1.5-.2s1.1-.8,1.1-.8c0,0,1.1.2,1.4,0s.4-.8.4-.8v-1.1c0,0,1.7-.5,1.7-.5h.9s1.5-.9,1.5-.9c0,0,.5-.4.7-.7.6-.1,2.9-.8,3.4-1.1s2.2-1.1,2.2-1.1c0,0,.4,0,.6.1s.8-.4.8-.4h.6c0,0,.7-.6.7-.6,0,0,.2-.2-.3-.3s-2.8.1-2.8.1l-2.5.7s-1.5,0-1.7.3c-.4-.2-1-.4-1-.4h1c0,0,0-.9,0-.9h.3s-.1-.8-.1-.8c0,0,.4-.3.1-.9s-1.5-.3-1.5-.3c0,0-.7.3-.9.6s-.4,1-.4,1c0,0-1.5-.9-2-.9s-8.3,0-8.3,0c0,0-7.3.8-8.3,1.3,2.6-.2,4.2-.4,4.5.2s-1.5,1.1-1.5,1.1c0,0,3.5,0,3.8,1s-1.4,1.5-1.4,1.5l4.6-.6s.2.5.8.4.8-.7.8-.7l2.6-.3s-2.3.8-2.7,1.4,0,1.2,0,1.2c0,0-.7.8-1.5.8-.4-.6-.8-.3-1.1,0s-.5.5-.5.5c0,0-.5-.2-1,.6,0,0-.4.5-.3.8-.5.2-.8,1-.8,1l-1.5,1.2-.9-.3h0s0,0,0,0Z"/>
      <polygon class="st7" points="1015.9 -27.4 1063.9 -48.1 1065.9 -50.1 1076.3 -56.6 1075.7 -59.2 1067.9 -57.5 1066.5 -57.1 990.8 -27.4 1015.9 -27.4"/>
    </g>
  </g>
</svg>