<?xml version="1.0" encoding="UTF-8"?>
<svg id="Skyline" xmlns="http://www.w3.org/2000/svg" version="1.1" viewBox="0 0 792 327.6">
  <!-- Generator: Adobe Illustrator 29.3.1, SVG Export Plug-In . SVG Version: 2.1.0 Build 151)  -->
  <defs>
    <style>
      .st0 {
        fill: #515d60;
      }

      .st1 {
        fill: #748184;
      }

      .st2 {
        fill: #3a4649;
      }
    </style>
  </defs>
  <path id="Background" class="st2" d="M57.1,231.8h25.9v-27.9h6.2v-3h34.5v-36.2h49.3v87h7.7v-36.7h31v3.5h18.9v-112.6h46.6v2.2h13.6s3.7-41.7,8.2-47.9,42.9-13.6,42.9-13.6L343.3,0s3,69.3,3,74.1h3.2v17.2h55.8v28.5h13.1v-13.4h3.2v-49.6h5v-10.7l1.8-1.8-2-1.6v-12.9h33.1v12.9l-1.8,1.6,1.4,1.8v10h6.6v49.5h3.8v107.6h12.6v-122.9h8.6v-16.3l23.1-2.6,24.5,1.4v34.5h58.7v11.2h5.2v118.7h8v-28.1l9.8-17.5,9.4,18.1h5.4v-6h6v35.1h17.6v-33.1h11v-6.6h36.1v4.4h13.6v75.2h20.8v-59.7h22.8v-4.8h29.1v113.3H0v-94.4l57.1-1.4h0Z"/>
  <path id="Midground" class="st0" d="M0,304.4v-89.5h62.3v72.8h36v-112.2h62.8v146.8h110.5v-178.2h37.2v66.1h21.1v-49.2h13.4l3.7-5.5h31.8l4.1,6.6h8.4v-15.7h2.8v-27.3h2.6v-7.1h44.7v8h2.8v26.6h2.6v37.6h3.2v31.6h20.7v-44.9s-2-28.7,3.3-41.9c16.3-1,35.6,0,35.6,0l1.4-54.8s3.7,48,3.7,53.5c5.7.2,21.2,0,21.2,0,0,0,6.5,28.9,6.5,46.6v70.6h23.6v69h9.5v-78.9h29v-27.2h41.2v21.2h7.4v5.1h10.8v2.6h20.4v3.1h11v61.6h21v-28.1h31.7v6.3h43.9v48H0v-23.2h0Z"/>
  <path id="Foreground" class="st1" d="M0,327.6v-54h32.6v23.3h4.7v-6.1h23.3v-8.1h52.8v8.5h5.2v-2.2h13.7v2.4h5.7v-2.6h3.6v2.3h10.5v-2.9h7.2v1.7h8.7v-2h8.9v2.7h2.3v4h5.2v4.6h6.2v15.9h13.6v-90.4h11.5v-11.2h3.9v-8.9h39.5v90.3h38.5v-96.9l50.7-6.3,28,2.3v99.8h62.9v-66.9h6.1v-16.2h25.5v81.8h10.5v-30.6h53.2v47.9h42.2v-31.9h14.4v-2.4h3.5v-4.4h4.5v-3.1h8.9v2.4h4.7v5.6h2.7v2.4h13.5v21.1h29.2s0-4.4,7.5-5.1,96.2-7,126.3-4.4v37.6H0Z"/>
</svg>